<svg width="241" height="246" viewBox="0 0 241 246" fill="none" xmlns="http://www.w3.org/2000/svg">
<path d="M57.3519 119.006L19.6808 108.912L34.7103 52.8217C35.9135 48.3318 40.052 45.2635 44.6978 45.416L76.7884 46.4684L57.3519 119.006ZM210.592 122.797C215.927 124.226 219.093 129.71 217.663 135.044L213.522 150.499C212.093 155.834 206.61 159 201.275 157.57L62.1816 120.3L63.4757 115.471L74.6885 118.475C75.4965 118.692 76.3539 118.382 76.8375 117.699L91.0187 97.6878C91.8238 96.5514 91.25 94.9607 89.9049 94.6L70.842 89.4921C70.7132 89.4576 70.583 89.4378 70.4534 89.4294L71.499 85.527L210.592 122.797ZM68.8115 54.1278C69.3197 52.2311 67.8995 50.3659 65.936 50.3515L48.985 50.2287C46.6593 50.2119 44.557 51.9192 43.9038 54.3559L30.6972 103.644C30.2684 105.244 31.2183 106.889 32.8185 107.318L50.2052 111.977C51.8056 112.405 53.4506 111.456 53.8794 109.855L68.8115 54.1278ZM125.9 104.245C125.092 104.028 124.234 104.338 123.751 105.021L109.57 125.032C108.765 126.169 109.338 127.759 110.683 128.12L129.746 133.228C130.554 133.444 131.412 133.135 131.895 132.452L146.076 112.44C146.882 111.304 146.308 109.713 144.963 109.353L125.9 104.245ZM180.958 118.997C180.15 118.781 179.292 119.091 178.809 119.773L164.627 139.785C163.822 140.921 164.396 142.512 165.741 142.873L184.804 147.981C185.612 148.197 186.469 147.887 186.953 147.205L201.134 127.193C201.939 126.057 201.366 124.466 200.02 124.105L180.958 118.997ZM221.283 46.555C226.806 46.555 231.283 51.0322 231.283 56.5551L231.284 72.5545C231.283 78.0772 226.806 82.5551 221.283 82.5551L72.2957 82.5538L73.6353 77.5544L88.8914 77.5547C89.7276 77.5545 90.476 77.0335 90.7667 76.2495L99.2854 53.2487C99.7687 51.9428 98.8026 50.5546 97.4101 50.5543L80.8699 50.5547L81.9418 46.5542L221.283 46.555ZM156.285 53.2494C156.769 51.9433 155.802 50.5553 154.41 50.555L134.675 50.5547C133.839 50.555 133.09 51.0757 132.8 51.8599L124.281 74.8607C123.798 76.1662 124.764 77.5543 126.156 77.555L145.891 77.5544C146.728 77.5543 147.476 77.0333 147.767 76.2492L156.285 53.2494ZM213.285 53.2491C213.768 51.9432 212.803 50.5555 211.411 50.555L191.675 50.5544C190.839 50.5548 190.091 51.0765 189.8 51.8608L181.282 74.8606C180.799 76.1663 181.764 77.554 183.156 77.5548L202.892 77.5544C203.728 77.554 204.476 77.033 204.767 76.249L213.285 53.2491Z" fill="#D4A847"/>
<path d="M59.6695 65.6945C58.7885 68.9821 55.4093 70.9331 52.1217 70.0522C48.8341 69.1713 46.8831 65.7921 47.764 62.5044C48.6449 59.2168 52.0241 57.2658 55.3117 58.1467C58.5994 59.0276 60.5504 62.4069 59.6695 65.6945Z" fill="#F2C35F"/>
<path d="M51.3539 96.7286C50.473 100.016 47.0937 101.967 43.8061 101.086C40.5185 100.205 38.5675 96.8261 39.4484 93.5385C40.3293 90.2509 43.7086 88.2999 46.9962 89.1808C50.2838 90.0617 52.2348 93.441 51.3539 96.7286Z" fill="#F2C35F"/>
<path d="M210.057 163.433L191.939 231.047C189.081 241.716 178.114 248.049 167.444 245.19L14.8281 204.296C4.15886 201.437 -2.17235 190.47 0.686473 179.801L18.8037 112.187L210.057 163.433ZM14.8906 185.181C13.9426 184.927 12.9678 185.49 12.7138 186.438C12.4598 187.386 13.0226 188.361 13.9707 188.615L175.873 231.995C176.821 232.249 177.796 231.687 178.05 230.74C178.304 229.792 177.741 228.817 176.793 228.563L14.8906 185.181ZM176.157 166.124C173.49 165.41 170.748 166.993 170.033 169.66L166.505 182.83C165.79 185.498 167.373 188.24 170.04 188.954L183.211 192.484C185.878 193.198 188.62 191.615 189.335 188.948L192.863 175.778C193.578 173.11 191.994 170.368 189.327 169.654L176.157 166.124ZM140.529 156.578C137.862 155.864 135.12 157.446 134.405 160.114L130.877 173.283C130.162 175.951 131.745 178.693 134.412 179.407L147.582 182.937C150.249 183.651 152.991 182.068 153.706 179.401L157.235 166.231C157.95 163.563 156.366 160.821 153.699 160.107L140.529 156.578ZM104.901 147.032C102.234 146.317 99.492 147.9 98.7773 150.568L95.249 163.738C94.5343 166.405 96.1168 169.147 98.7841 169.862L111.954 173.39C114.621 174.105 117.363 172.522 118.078 169.855L121.606 156.685C122.321 154.018 120.739 151.276 118.071 150.561L104.901 147.032ZM69.2734 137.486C66.606 136.771 63.8641 138.353 63.1494 141.021L59.621 154.191C58.9063 156.858 60.4889 159.6 63.1562 160.315L76.3261 163.844C78.9934 164.559 81.7354 162.975 82.4501 160.308L85.9785 147.138C86.6932 144.471 85.1106 141.729 82.4433 141.014L69.2734 137.486ZM33.6455 127.939C30.9782 127.224 28.2363 128.807 27.5214 131.474L23.9921 144.645C23.2778 147.312 24.8604 150.053 27.5273 150.768L40.6982 154.297C43.3654 155.012 46.1074 153.429 46.8222 150.762L50.3505 137.591C51.0651 134.924 49.4826 132.183 46.8154 131.468L33.6455 127.939Z" fill="#C23B22"/>
</svg>
